<svg xmlns="http://www.w3.org/2000/svg" viewBox="0 0 42.34 39.66"><defs><style>.cls-1{fill:#092d51;}</style></defs><title>report-incident</title><g id="Layer_2" data-name="Layer 2"><g id="Layer_2-2" data-name="Layer 2"><path class="cls-1" d="M21.18,0C9.48,0,0,8.56,0,19.12A17.72,17.72,0,0,0,3.35,29.45a3.45,3.45,0,0,1,.34.51A2.51,2.51,0,0,1,4,31.21c0,.17-2,7.19-2,7.19a1,1,0,0,0,.84,1.24,1.23,1.23,0,0,0,.27,0,1.34,1.34,0,0,0,.4-.06l.18-.07L9.32,36.8l1.11-.48a3.28,3.28,0,0,1,1.23-.22,3.54,3.54,0,0,1,1.14.18h0l.17.06a22.94,22.94,0,0,0,8.28,1.28c11.7,0,21.07-7.94,21.07-18.5S32.88,0,21.18,0Zm0,30.58a2.35,2.35,0,1,1,2.35-2.35A2.35,2.35,0,0,1,21.17,30.58Zm2.35-11.76a2.35,2.35,0,0,1-4.7,0V9.41a2.35,2.35,0,1,1,4.7,0Z"/></g></g></svg>