<svg xmlns="http://www.w3.org/2000/svg" viewBox="0 0 31.44 40.33"><defs><style>.cls-1{fill:#092d51;}</style></defs><title>request</title><g id="Layer_2" data-name="Layer 2"><g id="Layer_2-2" data-name="Layer 2"><path class="cls-1" d="M23.75,0c-4.25,0-7.69,3.11-7.69,7a6.44,6.44,0,0,0,1.22,3.75,1.86,1.86,0,0,1,.12.18,1,1,0,0,1,.12.46c0,.06-.72,2.61-.72,2.61a.39.39,0,0,0,.31.45h.09a.37.37,0,0,0,.15,0l.07,0,2-1,.41-.18a1.25,1.25,0,0,1,.45-.08,1.14,1.14,0,0,1,.41.07h0l.06,0a8.23,8.23,0,0,0,3,.47c4.24,0,7.65-2.89,7.65-6.72S28,0,23.75,0Z"/><path class="cls-1" d="M16.06,19.57a5.16,5.16,0,1,0-5.17,5.16,5.16,5.16,0,0,0,5.17-5.16Z"/><path class="cls-1" d="M6.23,25.47A10.89,10.89,0,0,0,.36,38.09a26,26,0,0,0,21.08,0,10.91,10.91,0,0,0-5.87-12.62A7.54,7.54,0,0,1,6.23,25.47Z"/></g></g></svg>